<svg width="200" height="200" viewBox="0 0 200 200" fill="none" xmlns="http://www.w3.org/2000/svg">
<rect width="200" height="200" fill="black"/>
<path d="M167.21 99.96C168.667 99.96 169.712 100.277 170.345 100.91C171.042 101.543 171.39 102.367 171.39 103.38C171.39 105.027 170.883 106.483 169.87 107.75C168.92 109.017 167.4 109.682 165.31 109.745C160.307 109.808 155.81 109.428 151.82 108.605C147.387 118.042 142.035 125.895 135.765 132.165C129.558 138.372 123.415 141.475 117.335 141.475C111.762 141.475 107.582 138.53 104.795 132.64C102.008 126.687 100.425 118.738 100.045 108.795C96.245 119.815 91.9383 128.017 87.125 133.4C82.375 138.783 77.3083 141.475 71.925 141.475C65.845 141.475 61.2533 137.707 58.15 130.17C55.0467 122.57 53.495 112.373 53.495 99.58C53.495 90.27 54.3183 80.0417 55.965 68.895C56.4083 65.7283 57.2 63.5433 58.34 62.34C59.5433 61.0733 61.4117 60.44 63.945 60.44C65.845 60.44 67.3017 60.8517 68.315 61.675C69.3917 62.4983 69.93 64.0183 69.93 66.235C69.93 66.6783 69.8667 67.5333 69.74 68.8C67.84 81.7833 66.89 92.835 66.89 101.955C66.89 110.442 67.6183 116.997 69.075 121.62C70.5317 126.243 72.495 128.555 74.965 128.555C77.1817 128.555 79.8417 126.243 82.945 121.62C86.1117 116.933 89.2467 110.03 92.35 100.91C95.4533 91.7267 98.0817 80.8017 100.235 68.135C100.742 65.2217 101.66 63.2267 102.99 62.15C104.383 61.01 106.252 60.44 108.595 60.44C110.558 60.44 111.983 60.8833 112.87 61.77C113.82 62.5933 114.295 63.86 114.295 65.57C114.295 66.5833 114.232 67.375 114.105 67.945C112.332 78.2683 111.445 88.5917 111.445 98.915C111.445 105.945 111.667 111.55 112.11 115.73C112.617 119.91 113.535 123.108 114.865 125.325C116.258 127.478 118.253 128.555 120.85 128.555C123.89 128.555 127.278 126.275 131.015 121.715C134.752 117.092 138.172 111.36 141.275 104.52C137.412 102.113 134.498 99.01 132.535 95.21C130.572 91.3467 129.59 86.9133 129.59 81.91C129.59 76.9067 130.35 72.695 131.87 69.275C133.453 65.7917 135.575 63.195 138.235 61.485C140.958 59.775 143.967 58.92 147.26 58.92C151.313 58.92 154.512 60.3767 156.855 63.29C159.262 66.2033 160.465 70.1933 160.465 75.26C160.465 82.4167 158.913 90.365 155.81 99.105C159.04 99.675 162.84 99.96 167.21 99.96ZM139.185 81.245C139.185 87.4517 141.18 92.0433 145.17 95.02C147.64 87.9267 148.875 82.0683 148.875 77.445C148.875 74.785 148.527 72.8533 147.83 71.65C147.133 70.3833 146.183 69.75 144.98 69.75C143.27 69.75 141.877 70.7633 140.8 72.79C139.723 74.7533 139.185 77.5717 139.185 81.245Z" fill="white"/>
</svg>
